<?xml version="1.0" encoding="UTF-8" standalone="no"?>
<!-- Created with Inkscape (http://www.inkscape.org/) -->

<svg
   width="96"
   height="96"
   viewBox="0 0 25.399999 25.4"
   version="1.1"
   id="svg1"
   xmlns="http://www.w3.org/2000/svg"
   xmlns:svg="http://www.w3.org/2000/svg">
  <defs
     id="defs1" />
  <g
     id="layer1">
    <path
       style="opacity:1;fill:#3d3d3d;fill-opacity:0.72;stroke-width:0.278;stroke-linecap:square;stroke-dasharray:none;paint-order:stroke fill markers"
       id="path2"
       d="M 14.7,8.46667 A 2,2 0 0 1 12.739387,10.466282 2,2 0 0 1 10.701551,8.5454286 2,2 0 0 1 12.5819,6.47016 2,2 0 0 1 14.693797,8.3092751" />
    <path
       style="opacity:1;fill:#3d3d3d;fill-opacity:0.72;stroke-width:0.278;stroke-linecap:square;stroke-dasharray:none;paint-order:stroke fill markers"
       id="path3"
       d="m 14.7,16.933331 a 2,2 0 0 1 -1.960613,1.999612 2,2 0 0 1 -2.037836,-1.920854 2,2 0 0 1 1.880349,-2.075269 2,2 0 0 1 2.111897,1.839116" />
    <path
       style="opacity:1;fill:#3d3d3d;fill-opacity:0.72;stroke-width:0.278;stroke-linecap:square;stroke-dasharray:none;paint-order:stroke fill markers"
       id="path5"
       d="M 6.7625031,8.46667 A 2,2 0 0 1 4.8018901,10.466282 2,2 0 0 1 2.7640545,8.5454286 2,2 0 0 1 4.6444035,6.47016 2,2 0 0 1 6.7563002,8.3092751" />
    <path
       style="opacity:1;fill:#3d3d3d;fill-opacity:0.72;stroke-width:0.278;stroke-linecap:square;stroke-dasharray:none;paint-order:stroke fill markers"
       id="path6"
       d="m 6.7625031,16.933331 a 2,2 0 0 1 -1.960613,1.999612 2,2 0 0 1 -2.0378356,-1.920854 2,2 0 0 1 1.880349,-2.075269 2,2 0 0 1 2.1118967,1.839116" />
    <path
       style="opacity:1;fill:#3d3d3d;fill-opacity:0.72;stroke-width:0.278;stroke-linecap:square;stroke-dasharray:none;paint-order:stroke fill markers"
       id="path8"
       d="M 22.637501,8.46667 A 2,2 0 0 1 20.676888,10.466282 2,2 0 0 1 18.639052,8.5454286 2,2 0 0 1 20.519401,6.47016 2,2 0 0 1 22.631298,8.3092751" />
    <path
       style="opacity:1;fill:#3d3d3d;fill-opacity:0.72;stroke-width:0.278;stroke-linecap:square;stroke-dasharray:none;paint-order:stroke fill markers"
       id="path9"
       d="m 22.637501,16.933331 a 2,2 0 0 1 -1.960613,1.999612 2,2 0 0 1 -2.037836,-1.920854 2,2 0 0 1 1.880349,-2.075269 2,2 0 0 1 2.111897,1.839116" />
  </g>
</svg>
